{
	"asset":{
		"generator":"Khronos glTF Blender I/O v4.3.47",
		"version":"2.0"
	},
	"extensionsUsed":[
		"KHR_materials_specular"
	],
	"scene":0,
	"scenes":[
		{
			"name":"Scene",
			"nodes":[
				0
			]
		}
	],
	"nodes":[
		{
			"mesh":0,
			"name":"Cube",
			"scale":[
				0.3966137170791626,
				0.3310256004333496,
				1
			]
		}
	],
	"materials":[
		{
			"doubleSided":true,
			"extensions":{
				"KHR_materials_specular":{
					"specularTexture":{
						"index":0,
						"texCoord":1
					}
				}
			},
			"name":"Silver steel",
			"normalTexture":{
				"index":1,
				"texCoord":1
			},
			"pbrMetallicRoughness":{
				"baseColorTexture":{
					"index":2,
					"texCoord":1
				},
				"metallicRoughnessTexture":{
					"index":3,
					"texCoord":1
				}
			}
		}
	],
	"meshes":[
		{
			"name":"Cube.003",
			"primitives":[
				{
					"attributes":{
						"POSITION":0,
						"NORMAL":1,
						"TEXCOORD_0":2,
						"TEXCOORD_1":3
					},
					"indices":4,
					"material":0
				}
			]
		}
	],
	"textures":[
		{
			"sampler":0,
			"source":0
		},
		{
			"sampler":0,
			"source":1
		},
		{
			"sampler":0,
			"source":2
		},
		{
			"sampler":0,
			"source":3
		}
	],
	"images":[
		{
			"mimeType":"image/jpeg",
			"name":"metal_specular",
			"uri":"metal_specular.jpg"
		},
		{
			"mimeType":"image/jpeg",
			"name":"metal_normal_opengl",
			"uri":"metal_normal_opengl.jpg"
		},
		{
			"mimeType":"image/jpeg",
			"name":"metal_silver_diffuse",
			"uri":"metal_silver_diffuse.jpg"
		},
		{
			"mimeType":"image/png",
			"name":"metal_metallic.jpg-metal_glossiness.jpg",
			"uri":"metal_metallic_jpg-metal_glossiness_jpg.png"
		}
	],
	"accessors":[
		{
			"bufferView":0,
			"componentType":5126,
			"count":2930,
			"max":[
				1.098742127418518,
				1.098742127418518,
				1.098742127418518
			],
			"min":[
				-1.098742127418518,
				-1.098742127418518,
				-1.098742127418518
			],
			"type":"VEC3"
		},
		{
			"bufferView":1,
			"componentType":5126,
			"count":2930,
			"type":"VEC3"
		},
		{
			"bufferView":2,
			"componentType":5126,
			"count":2930,
			"type":"VEC2"
		},
		{
			"bufferView":3,
			"componentType":5126,
			"count":2930,
			"type":"VEC2"
		},
		{
			"bufferView":4,
			"componentType":5123,
			"count":4788,
			"type":"SCALAR"
		}
	],
	"bufferViews":[
		{
			"buffer":0,
			"byteLength":35160,
			"byteOffset":0,
			"target":34962
		},
		{
			"buffer":0,
			"byteLength":35160,
			"byteOffset":35160,
			"target":34962
		},
		{
			"buffer":0,
			"byteLength":23440,
			"byteOffset":70320,
			"target":34962
		},
		{
			"buffer":0,
			"byteLength":23440,
			"byteOffset":93760,
			"target":34962
		},
		{
			"buffer":0,
			"byteLength":9576,
			"byteOffset":117200,
			"target":34963
		}
	],
	"samplers":[
		{
			"magFilter":9729,
			"minFilter":9987
		}
	],
	"buffers":[
		{
			"byteLength":126776,
			"uri":"cubeupdate.bin"
		}
	]
}
